<svg width="26" height="26" viewBox="0 0 26 26" fill="none" xmlns="http://www.w3.org/2000/svg">
<path fill-rule="evenodd" clip-rule="evenodd" d="M25.5071 2.8701C25.6633 2.71417 25.7871 2.52902 25.8717 2.32521C25.9563 2.12141 25.9999 1.90295 26 1.6823C26.0001 1.46164 25.9568 1.24313 25.8725 1.03922C25.7882 0.835314 25.6645 0.65001 25.5086 0.493891C25.3527 0.337771 25.1675 0.213893 24.9637 0.129328C24.7599 0.0447631 24.5415 0.0011684 24.3208 0.00103278C24.1002 0.000897161 23.8817 0.0442233 23.6778 0.128537C23.4739 0.212852 23.2886 0.336502 23.1324 0.49243L12.9998 10.6253L2.87005 0.49243C2.55476 0.177132 2.12713 -3.3222e-09 1.68124 0C1.23534 3.3222e-09 0.807715 0.177132 0.492422 0.49243C0.177129 0.807728 3.32215e-09 1.23536 0 1.68126C-3.32215e-09 2.12716 0.177129 2.5548 0.492422 2.8701L10.6251 13L0.492422 23.1299C0.336305 23.286 0.212466 23.4714 0.127976 23.6753C0.0434862 23.8793 0 24.0979 0 24.3187C0 24.5395 0.0434862 24.7581 0.127976 24.9621C0.212466 25.1661 0.336305 25.3514 0.492422 25.5076C0.807715 25.8229 1.23534 26 1.68124 26C1.90202 26 2.12064 25.9565 2.32462 25.872C2.52859 25.7875 2.71393 25.6637 2.87005 25.5076L12.9998 15.3747L23.1324 25.5076C23.4477 25.8225 23.8752 25.9992 24.3208 25.999C24.7664 25.9987 25.1937 25.8214 25.5086 25.5061C25.8235 25.1908 26.0003 24.7633 26 24.3177C25.9997 23.8721 25.8224 23.4448 25.5071 23.1299L15.3745 13L25.5071 2.8701Z" fill="#F7F7F7"/>
</svg>
