<svg width="40" height="40" viewBox="0 0 40 40" fill="none" xmlns="http://www.w3.org/2000/svg">
<path fill-rule="evenodd" clip-rule="evenodd" d="M11.9607 0.617C14.0401 0.521273 14.7031 0.5 20 0.5C25.2969 0.5 25.9599 0.523045 28.0375 0.617C30.1152 0.710955 31.5334 1.04245 32.7743 1.52286C34.0737 2.01391 35.2525 2.7815 36.2275 3.77423C37.2203 4.74745 37.9861 5.92455 38.4754 7.22573C38.9575 8.46664 39.2873 9.88482 39.383 11.9589C39.4787 14.0419 39.5 14.7049 39.5 20C39.5 25.2969 39.477 25.9599 39.383 28.0393C39.289 30.1134 38.9575 31.5316 38.4754 32.7725C37.9861 34.0738 37.219 35.2529 36.2275 36.2275C35.2525 37.2203 34.0737 37.9861 32.7743 38.4754C31.5334 38.9575 30.1152 39.2873 28.0411 39.383C25.9599 39.4787 25.2969 39.5 20 39.5C14.7031 39.5 14.0401 39.477 11.9607 39.383C9.88659 39.289 8.46841 38.9575 7.2275 38.4754C5.92618 37.986 4.74714 37.219 3.77245 36.2275C2.7804 35.2537 2.01269 34.0752 1.52286 32.7743C1.04245 31.5334 0.712727 30.1152 0.617 28.0411C0.521273 25.9581 0.5 25.2951 0.5 20C0.5 14.7031 0.523045 14.0401 0.617 11.9625C0.710955 9.88482 1.04245 8.46664 1.52286 7.22573C2.01342 5.92469 2.78171 4.74624 3.77423 3.77245C4.74753 2.78062 5.92538 2.01292 7.22573 1.52286C8.46664 1.04245 9.88482 0.712727 11.9589 0.617H11.9607ZM27.8798 4.127C25.8234 4.03305 25.2065 4.01355 20 4.01355C14.7935 4.01355 14.1766 4.03305 12.1202 4.127C10.2181 4.21386 9.18636 4.53118 8.49855 4.79886C7.58914 5.15341 6.93855 5.57355 6.25605 6.25605C5.60908 6.88546 5.11118 7.65168 4.79886 8.49855C4.53118 9.18636 4.21386 10.2181 4.127 12.1202C4.03305 14.1766 4.01355 14.7935 4.01355 20C4.01355 25.2065 4.03305 25.8234 4.127 27.8798C4.21386 29.7819 4.53118 30.8136 4.79886 31.5015C5.11086 32.347 5.609 33.1146 6.25605 33.744C6.88536 34.391 7.65295 34.8891 8.49855 35.2011C9.18636 35.4688 10.2181 35.7861 12.1202 35.873C14.1766 35.967 14.7917 35.9865 20 35.9865C25.2083 35.9865 25.8234 35.967 27.8798 35.873C29.7819 35.7861 30.8136 35.4688 31.5015 35.2011C32.4109 34.8466 33.0615 34.4265 33.744 33.744C34.391 33.1146 34.8891 32.347 35.2011 31.5015C35.4688 30.8136 35.7861 29.7819 35.873 27.8798C35.967 25.8234 35.9865 25.2065 35.9865 20C35.9865 14.7935 35.967 14.1766 35.873 12.1202C35.7861 10.2181 35.4688 9.18636 35.2011 8.49855C34.8466 7.58914 34.4265 6.93855 33.744 6.25605C33.1145 5.60913 32.3483 5.11124 31.5015 4.79886C30.8136 4.53118 29.7819 4.21386 27.8798 4.127ZM17.5093 26.0113C18.9003 26.5903 20.4492 26.6685 21.8914 26.2324C23.3336 25.7963 24.5796 24.8731 25.4168 23.6203C26.2539 22.3676 26.6301 20.8631 26.4812 19.3638C26.3322 17.8645 25.6674 16.4634 24.6002 15.3998C23.9199 14.7199 23.0973 14.1993 22.1917 13.8755C21.286 13.5517 20.3199 13.4327 19.3627 13.5271C18.4055 13.6215 17.4812 13.927 16.6563 14.4215C15.8314 14.916 15.1263 15.5872 14.5919 16.3869C14.0576 17.1866 13.7072 18.0948 13.5659 19.0462C13.4247 19.9976 13.4961 20.9684 13.7751 21.8889C14.0541 22.8093 14.5338 23.6564 15.1795 24.3693C15.8252 25.0821 16.6209 25.6429 17.5093 26.0113ZM12.9126 12.9126C13.8434 11.9819 14.9483 11.2436 16.1643 10.7399C17.3804 10.2362 18.6838 9.97695 20 9.97695C21.3162 9.97695 22.6196 10.2362 23.8357 10.7399C25.0517 11.2436 26.1566 11.9819 27.0874 12.9126C28.0181 13.8434 28.7564 14.9483 29.2601 16.1643C29.7638 17.3804 30.023 18.6838 30.023 20C30.023 21.3162 29.7638 22.6196 29.2601 23.8357C28.7564 25.0517 28.0181 26.1566 27.0874 27.0874C25.2077 28.967 22.6583 30.023 20 30.023C17.3417 30.023 14.7923 28.967 12.9126 27.0874C11.033 25.2077 9.97695 22.6583 9.97695 20C9.97695 17.3417 11.033 14.7923 12.9126 12.9126ZM32.246 11.4696C32.4766 11.2521 32.6613 10.9904 32.789 10.7002C32.9167 10.41 32.9849 10.0971 32.9895 9.7801C32.9941 9.46307 32.9351 9.14833 32.8159 8.85453C32.6967 8.56072 32.5198 8.29381 32.2956 8.06961C32.0714 7.84542 31.8045 7.66848 31.5107 7.54928C31.2168 7.43008 30.9021 7.37105 30.5851 7.37567C30.268 7.38029 29.9552 7.44848 29.665 7.57619C29.3747 7.7039 29.1131 7.88854 28.8955 8.11918C28.4724 8.56773 28.2408 9.16353 28.2497 9.7801C28.2587 10.3967 28.5077 10.9855 28.9437 11.4215C29.3797 11.8575 29.9685 12.1065 30.5851 12.1154C31.2016 12.1244 31.7974 11.8928 32.246 11.4696Z" fill="#F7F7F7"/>
</svg>
