<svg width="30" height="43" viewBox="0 0 30 43" fill="none" xmlns="http://www.w3.org/2000/svg">
<path d="M29.642 0.355438C29.4211 0.136308 29.1174 0 28.7827 0H1.2147C0.879969 0 0.57543 0.135446 0.356301 0.355438C0.137172 0.575429 0 0.879967 0 1.2147V40.9383C0 41.2731 0.135446 41.5776 0.356301 41.7976C0.577156 42.0176 0.879969 42.1539 1.2147 42.1539H17.8866C18.676 42.1643 19.0694 41.5509 19.0694 40.9375C19.0694 40.3241 18.6752 39.7107 17.8866 39.7228H2.63041V17.6365C5.28843 18.2067 7.00006 18.9443 8.21994 20.1659C10.2404 22.1855 10.9383 25.5484 11.7407 32.3216L11.8218 33.004C11.8908 33.5828 12.7302 33.5828 12.7984 33.004L12.8794 32.3216C13.6809 25.5484 14.3797 22.1855 16.4002 20.1659C18.2982 18.2662 21.3832 17.5364 27.3705 16.7893V23.8118H30V1.2147C30 0.879967 29.8628 0.575429 29.6437 0.355438H29.642ZM8.21907 11.9865C6.9992 13.2081 5.28757 13.9449 2.62955 14.516V2.43113H11.4128C10.7218 7.50129 9.96262 10.2439 8.21907 11.9865V11.9865ZM16.3985 11.9865C14.6549 10.2447 13.8966 7.50129 13.2047 2.43113H27.3687V15.3632C21.3806 14.617 18.2964 13.8862 16.3985 11.9865V11.9865Z" fill="#192332"/>
</svg>
