<svg width="42" height="34" viewBox="0 0 42 34" fill="none" xmlns="http://www.w3.org/2000/svg">
<path d="M41.5 4.4144C39.9922 5.07589 38.3725 5.52283 36.6698 5.72485C38.4267 4.68399 39.7412 3.04579 40.3678 1.11593C38.7172 2.08668 36.9106 2.76998 35.0266 3.13613C33.7597 1.79683 32.0816 0.909126 30.2529 0.610829C28.4243 0.312533 26.5473 0.620336 24.9134 1.48645C23.2795 2.35257 21.9801 3.72854 21.217 5.40073C20.4538 7.07293 20.2697 8.9478 20.693 10.7342C17.3483 10.568 14.0763 9.70725 11.0893 8.20793C8.10235 6.70861 5.46717 4.6042 3.3548 2.03128C2.63252 3.26485 2.21721 4.69509 2.21721 6.21829C2.21641 7.58951 2.55746 8.93974 3.21012 10.1492C3.86278 11.3586 4.80686 12.3898 5.9586 13.1513C4.62289 13.1093 3.31665 12.7519 2.1486 12.1091V12.2163C2.14846 14.1395 2.82037 16.0035 4.05032 17.4921C5.28026 18.9806 6.99249 20.002 8.89646 20.383C7.65737 20.715 6.35827 20.7639 5.09729 20.526C5.63448 22.1808 6.68087 23.6278 8.08998 24.6646C9.49909 25.7013 11.2004 26.2758 12.9557 26.3077C9.97596 28.6236 6.29606 29.8799 2.50793 29.8743C1.8369 29.8745 1.16644 29.8357 0.5 29.7581C4.34517 32.2059 8.82123 33.505 13.3926 33.5C28.8674 33.5 37.3271 20.8102 37.3271 9.80459C37.3271 9.44704 37.318 9.0859 37.3018 8.72834C38.9473 7.55014 40.3677 6.09117 41.4964 4.41977L41.5 4.4144Z" fill="#F7F7F7"/>
</svg>
