<svg width="41" height="34" viewBox="0 0 41 34" fill="none" xmlns="http://www.w3.org/2000/svg">
<path d="M41 4.4144C39.4922 5.07589 37.8725 5.52283 36.1698 5.72485C37.9267 4.68399 39.2412 3.04579 39.8678 1.11593C38.2172 2.08668 36.4106 2.76998 34.5266 3.13613C33.2597 1.79683 31.5816 0.909126 29.7529 0.610829C27.9243 0.312533 26.0473 0.620336 24.4134 1.48645C22.7795 2.35257 21.4801 3.72854 20.717 5.40073C19.9538 7.07293 19.7697 8.94779 20.193 10.7342C16.8483 10.568 13.5763 9.70725 10.5893 8.20793C7.60235 6.70861 4.96717 4.6042 2.8548 2.03128C2.13252 3.26485 1.71721 4.69509 1.71721 6.21828C1.71641 7.58951 2.05746 8.93974 2.71012 10.1492C3.36278 11.3586 4.30686 12.3898 5.4586 13.1513C4.12289 13.1093 2.81665 12.7519 1.6486 12.1091V12.2163C1.64846 14.1395 2.32037 16.0035 3.55032 17.4921C4.78026 18.9806 6.49249 20.002 8.39646 20.383C7.15737 20.715 5.85827 20.7639 4.59729 20.526C5.13448 22.1808 6.18087 23.6278 7.58998 24.6646C8.99909 25.7013 10.7004 26.2758 12.4557 26.3077C9.47596 28.6236 5.79606 29.8799 2.00793 29.8743C1.3369 29.8745 0.666437 29.8357 0 29.7581C3.84517 32.2059 8.32123 33.505 12.8926 33.5C28.3674 33.5 36.8271 20.8102 36.8271 9.80459C36.8271 9.44704 36.818 9.0859 36.8018 8.72834C38.4473 7.55014 39.8677 6.09116 40.9964 4.41977L41 4.4144Z" fill="#192332"/>
</svg>
