<svg width="39" height="40" viewBox="0 0 39 40" fill="none" xmlns="http://www.w3.org/2000/svg">
<path fill-rule="evenodd" clip-rule="evenodd" d="M11.4607 0.617C13.5401 0.521273 14.2031 0.5 19.5 0.5C24.7969 0.5 25.4599 0.523045 27.5375 0.617C29.6152 0.710955 31.0334 1.04245 32.2743 1.52286C33.5737 2.01391 34.7525 2.7815 35.7275 3.77423C36.7203 4.74745 37.4861 5.92455 37.9754 7.22573C38.4575 8.46664 38.7873 9.88482 38.883 11.9589C38.9787 14.0419 39 14.7049 39 20C39 25.2969 38.977 25.9599 38.883 28.0393C38.789 30.1134 38.4575 31.5316 37.9754 32.7725C37.4861 34.0738 36.719 35.2529 35.7275 36.2275C34.7525 37.2203 33.5737 37.9861 32.2743 38.4754C31.0334 38.9575 29.6152 39.2873 27.5411 39.383C25.4599 39.4787 24.7969 39.5 19.5 39.5C14.2031 39.5 13.5401 39.477 11.4607 39.383C9.38659 39.289 7.96841 38.9575 6.7275 38.4754C5.42618 37.986 4.24714 37.219 3.27245 36.2275C2.2804 35.2537 1.51269 34.0752 1.02286 32.7743C0.542455 31.5334 0.212727 30.1152 0.117 28.0411C0.0212727 25.9581 0 25.2951 0 20C0 14.7031 0.0230454 14.0401 0.117 11.9625C0.210955 9.88482 0.542455 8.46664 1.02286 7.22573C1.51342 5.92469 2.28171 4.74624 3.27423 3.77245C4.24753 2.78062 5.42538 2.01292 6.72573 1.52286C7.96664 1.04245 9.38482 0.712727 11.4589 0.617H11.4607ZM27.3798 4.127C25.3234 4.03305 24.7065 4.01355 19.5 4.01355C14.2935 4.01355 13.6766 4.03305 11.6202 4.127C9.71809 4.21386 8.68636 4.53118 7.99855 4.79886C7.08914 5.15341 6.43855 5.57355 5.75605 6.25605C5.10908 6.88546 4.61118 7.65168 4.29886 8.49855C4.03118 9.18636 3.71386 10.2181 3.627 12.1202C3.53305 14.1766 3.51355 14.7935 3.51355 20C3.51355 25.2065 3.53305 25.8234 3.627 27.8798C3.71386 29.7819 4.03118 30.8136 4.29886 31.5015C4.61086 32.347 5.109 33.1146 5.75605 33.744C6.38536 34.391 7.15295 34.8891 7.99855 35.2011C8.68636 35.4688 9.71809 35.7861 11.6202 35.873C13.6766 35.967 14.2917 35.9865 19.5 35.9865C24.7083 35.9865 25.3234 35.967 27.3798 35.873C29.2819 35.7861 30.3136 35.4688 31.0015 35.2011C31.9109 34.8466 32.5615 34.4265 33.244 33.744C33.891 33.1146 34.3891 32.347 34.7011 31.5015C34.9688 30.8136 35.2861 29.7819 35.373 27.8798C35.467 25.8234 35.4865 25.2065 35.4865 20C35.4865 14.7935 35.467 14.1766 35.373 12.1202C35.2861 10.2181 34.9688 9.18636 34.7011 8.49855C34.3466 7.58914 33.9265 6.93855 33.244 6.25605C32.6145 5.60913 31.8483 5.11124 31.0015 4.79886C30.3136 4.53118 29.2819 4.21386 27.3798 4.127ZM17.0093 26.0113C18.4003 26.5903 19.9492 26.6685 21.3914 26.2324C22.8336 25.7963 24.0796 24.8731 24.9168 23.6203C25.7539 22.3676 26.1301 20.8631 25.9812 19.3638C25.8322 17.8645 25.1674 16.4634 24.1002 15.3998C23.4199 14.7199 22.5973 14.1993 21.6917 13.8755C20.786 13.5517 19.8199 13.4327 18.8627 13.5271C17.9055 13.6215 16.9812 13.927 16.1563 14.4215C15.3314 14.916 14.6263 15.5872 14.0919 16.3869C13.5576 17.1866 13.2072 18.0948 13.0659 19.0462C12.9247 19.9976 12.9961 20.9684 13.2751 21.8889C13.5541 22.8093 14.0338 23.6564 14.6795 24.3693C15.3252 25.0821 16.1209 25.6429 17.0093 26.0113ZM12.4126 12.9126C13.3434 11.9819 14.4483 11.2436 15.6643 10.7399C16.8804 10.2362 18.1838 9.97695 19.5 9.97695C20.8162 9.97695 22.1196 10.2362 23.3357 10.7399C24.5517 11.2436 25.6566 11.9819 26.5874 12.9126C27.5181 13.8434 28.2564 14.9483 28.7601 16.1643C29.2638 17.3804 29.523 18.6838 29.523 20C29.523 21.3162 29.2638 22.6196 28.7601 23.8357C28.2564 25.0517 27.5181 26.1566 26.5874 27.0874C24.7077 28.967 22.1583 30.023 19.5 30.023C16.8417 30.023 14.2923 28.967 12.4126 27.0874C10.533 25.2077 9.47695 22.6583 9.47695 20C9.47695 17.3417 10.533 14.7923 12.4126 12.9126ZM31.746 11.4696C31.9766 11.2521 32.1613 10.9904 32.289 10.7002C32.4167 10.41 32.4849 10.0971 32.4895 9.7801C32.4941 9.46307 32.4351 9.14833 32.3159 8.85453C32.1967 8.56072 32.0198 8.29381 31.7956 8.06961C31.5714 7.84542 31.3045 7.66848 31.0107 7.54928C30.7168 7.43008 30.4021 7.37105 30.0851 7.37567C29.768 7.38029 29.4552 7.44848 29.165 7.57619C28.8747 7.7039 28.6131 7.88854 28.3955 8.11918C27.9724 8.56773 27.7408 9.16353 27.7497 9.7801C27.7587 10.3967 28.0077 10.9855 28.4437 11.4215C28.8797 11.8575 29.4685 12.1065 30.0851 12.1154C30.7016 12.1244 31.2974 11.8928 31.746 11.4696Z" fill="#192332"/>
</svg>
